<svg width="86" height="104" viewBox="0 0 86 104" fill="none" xmlns="http://www.w3.org/2000/svg"><path fill-rule="evenodd" clip-rule="evenodd" d="M77.4399 82.4923L30.806 96.3048C29.3813 96.7273 28.0159 95.4931 28.3152 94.0542L44.9749 14.1535C45.2865 12.6593 47.3488 12.4221 47.9995 13.8058L78.846 79.4039C79.4277 80.6414 78.764 82.1006 77.4399 82.4923ZM85.4372 79.2341L49.7212 3.27982C48.8255 1.381 46.9563 0.126499 44.8379 0.0103113C42.6644 -0.116439 40.7172 0.933314 39.6187 2.72001L0.882939 65.5508C-0.317006 67.5089 -0.293477 69.9237 0.95109 71.8582L19.8857 101.232C21.0143 102.985 22.9695 104 25.0019 104C25.5779 104 26.1572 103.919 26.7268 103.75L81.6889 87.4705C83.3724 86.9716 84.7492 85.7788 85.4697 84.1977C86.1877 82.6158 86.1763 80.8055 85.4372 79.2341Z" fill="white"></path></svg>